<mxfile host="app.diagrams.net" agent="Mozilla/5.0 (Macintosh; Intel Mac OS X 10_15_7) AppleWebKit/537.36 (KHTML, like Gecko) Chrome/129.0.0.0 Safari/537.36" version="24.7.17">
  <diagram name="Page-1" id="16tui8fVbN7CdKbOU_gG">
    <mxGraphModel dx="1781" dy="1672" grid="1" gridSize="10" guides="1" tooltips="1" connect="1" arrows="1" fold="1" page="1" pageScale="1" pageWidth="827" pageHeight="1169" math="0" shadow="0">
      <root>
        <mxCell id="0" />
        <mxCell id="1" parent="0" />
        <mxCell id="d9B738Ig26yF1-aM8Som-34" value="" style="rounded=1;whiteSpace=wrap;html=1;" vertex="1" parent="1">
          <mxGeometry x="-316.5" y="-170" width="236.5" height="190" as="geometry" />
        </mxCell>
        <mxCell id="d9B738Ig26yF1-aM8Som-33" value="" style="rounded=1;whiteSpace=wrap;html=1;" vertex="1" parent="1">
          <mxGeometry x="-310" y="-120" width="210" height="110" as="geometry" />
        </mxCell>
        <mxCell id="DuB5_f1cfJf8YaUaXnEi-1" value="" style="rounded=1;whiteSpace=wrap;html=1;" parent="1" vertex="1">
          <mxGeometry x="180" y="320" width="440" height="490" as="geometry" />
        </mxCell>
        <mxCell id="DuB5_f1cfJf8YaUaXnEi-2" value="" style="rounded=0;whiteSpace=wrap;html=1;fillColor=#66FFB3;" parent="1" vertex="1">
          <mxGeometry x="180" y="320" width="440" height="360" as="geometry" />
        </mxCell>
        <mxCell id="DuB5_f1cfJf8YaUaXnEi-5" value="" style="endArrow=classic;startArrow=classic;html=1;rounded=0;" parent="1" edge="1">
          <mxGeometry width="50" height="50" relative="1" as="geometry">
            <mxPoint x="140" y="680" as="sourcePoint" />
            <mxPoint x="140" y="320" as="targetPoint" />
          </mxGeometry>
        </mxCell>
        <mxCell id="DuB5_f1cfJf8YaUaXnEi-6" value="" style="endArrow=classic;startArrow=classic;html=1;rounded=0;" parent="1" edge="1">
          <mxGeometry width="50" height="50" relative="1" as="geometry">
            <mxPoint x="680" y="680" as="sourcePoint" />
            <mxPoint x="680" y="320" as="targetPoint" />
          </mxGeometry>
        </mxCell>
        <mxCell id="DuB5_f1cfJf8YaUaXnEi-13" value="60%" style="text;html=1;align=center;verticalAlign=middle;whiteSpace=wrap;rounded=0;" parent="1" vertex="1">
          <mxGeometry x="690" y="460" width="60" height="30" as="geometry" />
        </mxCell>
        <mxCell id="DuB5_f1cfJf8YaUaXnEi-14" value="60%" style="text;html=1;align=center;verticalAlign=middle;whiteSpace=wrap;rounded=0;" parent="1" vertex="1">
          <mxGeometry x="70" y="470" width="60" height="30" as="geometry" />
        </mxCell>
        <mxCell id="DuB5_f1cfJf8YaUaXnEi-16" value="" style="rounded=1;whiteSpace=wrap;html=1;strokeColor=#FF3333;arcSize=8;" parent="1" vertex="1">
          <mxGeometry x="330" y="525" width="240" height="120" as="geometry" />
        </mxCell>
        <mxCell id="DuB5_f1cfJf8YaUaXnEi-17" value="Remove Main Landmark Elements" style="text;html=1;align=center;verticalAlign=middle;whiteSpace=wrap;rounded=0;" parent="1" vertex="1">
          <mxGeometry x="410" y="570" width="60" height="30" as="geometry" />
        </mxCell>
        <mxCell id="6i2fh6FkRVsk5Uo4-a-l-2" value="" style="rounded=1;whiteSpace=wrap;html=1;" parent="1" vertex="1">
          <mxGeometry x="225" y="10" width="180" height="50" as="geometry" />
        </mxCell>
        <mxCell id="6i2fh6FkRVsk5Uo4-a-l-3" value="" style="rounded=1;whiteSpace=wrap;html=1;" parent="1" vertex="1">
          <mxGeometry x="365" y="10" width="30" height="50" as="geometry" />
        </mxCell>
        <mxCell id="6i2fh6FkRVsk5Uo4-a-l-4" value="IMG" style="text;html=1;align=center;verticalAlign=middle;whiteSpace=wrap;rounded=0;" parent="1" vertex="1">
          <mxGeometry x="350" y="20" width="60" height="30" as="geometry" />
        </mxCell>
        <mxCell id="6i2fh6FkRVsk5Uo4-a-l-5" value="" style="rounded=1;whiteSpace=wrap;html=1;" parent="1" vertex="1">
          <mxGeometry x="470" y="10" width="180" height="50" as="geometry" />
        </mxCell>
        <mxCell id="6i2fh6FkRVsk5Uo4-a-l-6" value="" style="rounded=1;whiteSpace=wrap;html=1;" parent="1" vertex="1">
          <mxGeometry x="480" y="10" width="30" height="50" as="geometry" />
        </mxCell>
        <mxCell id="6i2fh6FkRVsk5Uo4-a-l-7" value="IMG" style="text;html=1;align=center;verticalAlign=middle;whiteSpace=wrap;rounded=0;" parent="1" vertex="1">
          <mxGeometry x="465" y="20" width="60" height="30" as="geometry" />
        </mxCell>
        <mxCell id="6i2fh6FkRVsk5Uo4-a-l-8" value="" style="rounded=1;whiteSpace=wrap;html=1;fillColor=#99FFFF;" parent="1" vertex="1">
          <mxGeometry x="270" y="120" width="240" height="60" as="geometry" />
        </mxCell>
        <mxCell id="6i2fh6FkRVsk5Uo4-a-l-9" value="" style="rounded=0;whiteSpace=wrap;html=1;" parent="1" vertex="1">
          <mxGeometry x="440" y="130" width="140" height="45" as="geometry" />
        </mxCell>
        <mxCell id="6i2fh6FkRVsk5Uo4-a-l-10" value="" style="rounded=0;whiteSpace=wrap;html=1;" parent="1" vertex="1">
          <mxGeometry x="210" y="130" width="140" height="45" as="geometry" />
        </mxCell>
        <mxCell id="6i2fh6FkRVsk5Uo4-a-l-11" value="IMG / Search Button" style="text;html=1;align=center;verticalAlign=middle;whiteSpace=wrap;rounded=0;" parent="1" vertex="1">
          <mxGeometry x="240" y="137.5" width="60" height="30" as="geometry" />
        </mxCell>
        <mxCell id="6i2fh6FkRVsk5Uo4-a-l-12" value="IMG / Search Button" style="text;html=1;align=center;verticalAlign=middle;whiteSpace=wrap;rounded=0;" parent="1" vertex="1">
          <mxGeometry x="480" y="137.5" width="60" height="30" as="geometry" />
        </mxCell>
        <mxCell id="6i2fh6FkRVsk5Uo4-a-l-13" value="" style="ellipse;whiteSpace=wrap;html=1;aspect=fixed;" parent="1" vertex="1">
          <mxGeometry x="-323" y="-220" width="30" height="30" as="geometry" />
        </mxCell>
        <mxCell id="d9B738Ig26yF1-aM8Som-1" value="" style="ellipse;whiteSpace=wrap;html=1;aspect=fixed;" vertex="1" parent="1">
          <mxGeometry x="-413" y="-160" width="30" height="30" as="geometry" />
        </mxCell>
        <mxCell id="d9B738Ig26yF1-aM8Som-16" value="" style="ellipse;whiteSpace=wrap;html=1;aspect=fixed;" vertex="1" parent="1">
          <mxGeometry x="-230" y="-160" width="30" height="30" as="geometry" />
        </mxCell>
        <mxCell id="d9B738Ig26yF1-aM8Som-17" value="" style="ellipse;whiteSpace=wrap;html=1;aspect=fixed;" vertex="1" parent="1">
          <mxGeometry x="-458" y="-110" width="30" height="30" as="geometry" />
        </mxCell>
        <mxCell id="d9B738Ig26yF1-aM8Som-18" value="" style="ellipse;whiteSpace=wrap;html=1;aspect=fixed;" vertex="1" parent="1">
          <mxGeometry x="-370" y="-110" width="30" height="30" as="geometry" />
        </mxCell>
        <mxCell id="d9B738Ig26yF1-aM8Som-19" value="" style="ellipse;whiteSpace=wrap;html=1;aspect=fixed;" vertex="1" parent="1">
          <mxGeometry x="-280" y="-110" width="30" height="30" as="geometry" />
        </mxCell>
        <mxCell id="d9B738Ig26yF1-aM8Som-20" value="" style="ellipse;whiteSpace=wrap;html=1;aspect=fixed;" vertex="1" parent="1">
          <mxGeometry x="-190" y="-110" width="30" height="30" as="geometry" />
        </mxCell>
        <mxCell id="d9B738Ig26yF1-aM8Som-21" value="" style="ellipse;whiteSpace=wrap;html=1;aspect=fixed;" vertex="1" parent="1">
          <mxGeometry x="-510" y="-70" width="30" height="30" as="geometry" />
        </mxCell>
        <mxCell id="d9B738Ig26yF1-aM8Som-22" value="" style="ellipse;whiteSpace=wrap;html=1;aspect=fixed;" vertex="1" parent="1">
          <mxGeometry x="-450" y="-70" width="30" height="30" as="geometry" />
        </mxCell>
        <mxCell id="d9B738Ig26yF1-aM8Som-23" value="" style="ellipse;whiteSpace=wrap;html=1;aspect=fixed;" vertex="1" parent="1">
          <mxGeometry x="-400" y="-70" width="30" height="30" as="geometry" />
        </mxCell>
        <mxCell id="d9B738Ig26yF1-aM8Som-24" value="" style="ellipse;whiteSpace=wrap;html=1;aspect=fixed;" vertex="1" parent="1">
          <mxGeometry x="-353" y="-70" width="30" height="30" as="geometry" />
        </mxCell>
        <mxCell id="d9B738Ig26yF1-aM8Som-27" value="" style="ellipse;whiteSpace=wrap;html=1;aspect=fixed;" vertex="1" parent="1">
          <mxGeometry x="-300" y="-60" width="30" height="30" as="geometry" />
        </mxCell>
        <mxCell id="d9B738Ig26yF1-aM8Som-28" value="" style="ellipse;whiteSpace=wrap;html=1;aspect=fixed;" vertex="1" parent="1">
          <mxGeometry x="-260" y="-60" width="30" height="30" as="geometry" />
        </mxCell>
        <mxCell id="d9B738Ig26yF1-aM8Som-32" value="" style="rounded=1;whiteSpace=wrap;html=1;" vertex="1" parent="1">
          <mxGeometry x="-220" y="-70" width="100" height="50" as="geometry" />
        </mxCell>
        <mxCell id="d9B738Ig26yF1-aM8Som-30" value="" style="ellipse;whiteSpace=wrap;html=1;aspect=fixed;" vertex="1" parent="1">
          <mxGeometry x="-210" y="-60" width="30" height="30" as="geometry" />
        </mxCell>
        <mxCell id="d9B738Ig26yF1-aM8Som-31" value="" style="ellipse;whiteSpace=wrap;html=1;aspect=fixed;" vertex="1" parent="1">
          <mxGeometry x="-160" y="-60" width="30" height="30" as="geometry" />
        </mxCell>
      </root>
    </mxGraphModel>
  </diagram>
</mxfile>
